inDegrees=yes
name=ik_OwnShooting_orientations2.mot
DataType=double
version=3
OpenSimVersion=4.3-2021-08-27-4bc7ad9
endheader
time	pelvis_tilt	pelvis_list	pelvis_rotation	pelvis_tx	pelvis_ty	pelvis_tz	hip_flexion_r	hip_adduction_r	hip_rotation_r	knee_angle_r	knee_angle_r_beta	ankle_angle_r	subtalar_angle_r	mtp_angle_r	hip_flexion_l	hip_adduction_l	hip_rotation_l	knee_angle_l	knee_angle_l_beta	ankle_angle_l	subtalar_angle_l	mtp_angle_l	lumbar_extension	lumbar_bending	lumbar_rotation	arm_flex_r	arm_add_r	arm_rot_r	elbow_flex_r	pro_sup_r	wrist_flex_r	wrist_dev_r	arm_flex_l	arm_add_l	arm_rot_l	elbow_flex_l	pro_sup_l	wrist_flex_l	wrist_dev_l
3.33	-1.802904039575703	2.998530858291278	-118.3658935067996	0	0.9399999999999999	0	44.93334756201261	-10.00003630976722	0	59.99287137630301	1.04707313324195	-5.000000371529438	0	0	44.93334756201261	-10.00003630976722	0	59.99287137630301	1.04707313324195	-5.000000371529438	0	0	5.576133242051413	15.31512577782118	9.093496390167674	46.92244646773388	65.01287625125887	-89.98511158102284	8.484273503884879	44.99988775527538	0	0	0	-14.25677055582514	0	75.1113305910493	44.99988775527538	0	0
3.34	-1.818421027017534	3.018436119844738	-118.3610899914856	0	0.9399999999999999	0	44.93384133942462	-10.00003554940055	0	59.99292024242261	1.047073986116629	-5.000000357962525	0	0	44.93384133942462	-10.00003554940055	0	59.99292024242261	1.047073986116629	-5.000000357962525	0	0	6.225573257772449	11.86441350210206	12.58620193787099	47.99221545867043	81.50467239138354	-89.94221661417609	26.25375241506274	44.99988969562088	0	0	0	-14.25990216423059	0	75.11050713367334	44.99988969562088	0	0
3.35	-1.836164506472679	3.024574309145519	-118.3556509804458	0	0.9399999999999999	0	44.934282938957	-10.00003484987632	0	59.99296274686433	1.047074727959084	-5.000000345436994	0	0	44.934282938957	-10.00003484987632	0	59.99296274686433	1.047074727959084	-5.000000345436994	0	0	6.194076787377402	9.660979661383717	21.66490757248141	48.07964475748467	89.97775302730672	-86.84068708984698	41.8193359823677	44.99989147329869	0	0	0	-14.26265516067278	0	75.10977069177893	44.99989147329869	0	0
3.36	-1.860984503807653	3.064706923649155	-118.3440855006894	0	0.9399999999999999	0	44.9346728909947	-10.00003425591314	0	59.99300092569779	1.047075394305432	-5.000000334918751	0	0	44.9346728909947	-10.00003425591314	0	59.99300092569779	1.047075394305432	-5.000000334918751	0	0	5.824508062037814	8.577742870717579	33.72466838613317	48.33545692054359	89.99133051774142	-84.43338729760572	52.6004358602432	44.99989299606394	0	0	0	-14.26512266346502	0	75.10912038078642	44.99989299606394	0	0
3.37	-1.873920170443284	3.078723777741899	-118.3284410438989	0	0.9399999999999999	0	44.93478527375846	-10.00003405243829	0	59.99301059134184	1.047075563002745	-5.00000033118776	0	0	44.93478527375846	-10.00003405243829	0	59.99301059134184	1.047075563002745	-5.00000033118776	0	0	6.644150424380131	6.184360077015866	43.31978110373214	50.52878695909915	89.99396995681118	-81.79757749089093	62.30301213124513	44.99989350153081	0	0	0	-14.26577149834346	0	75.10893296356716	44.99989350153081	0	0
3.38	-1.888694162227357	3.094082580228473	-118.3070704015459	0	0.9399999999999999	0	44.93495625713035	-10.00003382616644	0	59.99302874802699	1.047075879896683	-5.000000327309741	0	0	44.93495625713035	-10.00003382616644	0	59.99302874802699	1.047075879896683	-5.000000327309741	0	0	7.994230827364853	3.894085193959552	48.16633891607241	50.440439711764	89.99455702415841	-81.02157273779373	66.24386453046286	44.99989409831884	0	0	0	-14.26692129803685	0	75.10864781981347	44.99989409831884	0	0
3.39	-1.909368209604326	3.106703059136529	-118.2972469572895	0	0.9399999999999999	0	44.93577329008782	-10.00003269265167	0	59.99311391977335	1.047077366424086	-5.000000307674113	0	0	44.93577329008782	-10.00003269265167	0	59.99311391977335	1.047077366424086	-5.000000307674113	0	0	8.153679849455747	3.392605840235542	58.86502591991594	53.95658986718102	89.99617080475181	-74.90313570692319	81.46198107462384	44.99989705914717	0	0	0	-14.27231728494817	0	75.10728527896852	44.99989705914717	0	0
3.4	-1.920173220283905	3.143858893396012	-118.2834408956363	0	0.9399999999999999	0	44.93592728776218	-10.00003248646715	0	59.99313014571403	1.047077649620175	-5.000000304131073	0	0	44.93592728776218	-10.00003248646715	0	59.99313014571403	1.047077649620175	-5.000000304131073	0	0	8.910354354075835	2.533993857629437	64.10168585315107	55.88259903152489	89.99664523408939	-72.25688901966869	88.91603426031249	44.99989760163523	0	0	0	-14.27334849403378	0	75.10702846174939	44.99989760163523	0	0
3.41	-1.93627972050404	3.157250464768211	-118.2655537997435	0	0.9399999999999999	0	44.93754130168731	-10.00003013117722	0	59.99328644147263	1.04708037749577	-5.000000263286391	0	0	44.93754130168731	-10.00003013117722	0	59.99328644147263	1.04708037749577	-5.000000263286391	0	0	9.309646602147126	2.062135747231145	61.49724242188143	52.43321141424575	89.99623265383202	-70.28254671483586	85.30334984874149	44.99990372492675	0	0	0	-14.28360193282247	0	75.10433682047319	44.99990372492675	0	0
3.42	-1.950480932222452	3.183575447159845	-118.2436892398424	0	0.9399999999999999	0	44.94103419214411	-10.00002589032706	0	59.9936164865673	1.047086137869352	-5.000000194778816	0	0	44.94103419214411	-10.00002589032706	0	59.9936164865673	1.047086137869352	-5.000000194778816	0	0	8.311611499755335	3.354139120090844	55.94876832191882	46.25061145566447	89.9954001932465	-67.66631848577236	78.37731943398985	44.99991534212637	0	0	0	-14.30640157169854	0	75.0985118344628	44.99991534212637	0	0
